<svg viewBox="0 0 77 24" fill="none" xmlns="http://www.w3.org/2000/svg">
<g id="FoyDa!">
<path id="Vector" d="M72.8726 12.0703L72.1046 5.67029V0.550293H76.7126V5.67029L75.9446 12.0703H72.8726ZM76.1238 18.1119C75.6459 18.5898 75.0742 18.8287 74.4086 18.8287C73.743 18.8287 73.1712 18.5898 72.6934 18.1119C72.2155 17.634 71.9766 17.0623 71.9766 16.3967C71.9766 15.7311 72.2155 15.1594 72.6934 14.6815C73.1712 14.2036 73.743 13.9647 74.4086 13.9647C75.0742 13.9647 75.6459 14.2036 76.1238 14.6815C76.6016 15.1594 76.8406 15.7311 76.8406 16.3967C76.8406 17.0623 76.6016 17.634 76.1238 18.1119Z" fill="#FF4E00"/>
<path id="Vector_2" d="M66.3439 5.67041H70.1839V18.4704H66.3439V17.2672C65.4394 18.3083 64.1679 18.8288 62.5295 18.8288C60.8399 18.8288 59.3978 18.1803 58.2031 16.8832C57.0085 15.5691 56.4111 13.9648 56.4111 12.0704C56.4111 10.176 57.0085 8.58028 58.2031 7.28321C59.3978 5.96908 60.8399 5.31201 62.5295 5.31201C64.1679 5.31201 65.4394 5.83255 66.3439 6.87361V5.67041ZM61.0959 14.3488C61.6591 14.912 62.393 15.1936 63.2975 15.1936C64.2021 15.1936 64.9359 14.912 65.4991 14.3488C66.0623 13.7856 66.3439 13.0261 66.3439 12.0704C66.3439 11.1147 66.0623 10.3552 65.4991 9.79201C64.9359 9.22881 64.2021 8.94721 63.2975 8.94721C62.393 8.94721 61.6591 9.22881 61.0959 9.79201C60.5327 10.3552 60.2511 11.1147 60.2511 12.0704C60.2511 13.0261 60.5327 13.7856 61.0959 14.3488Z" fill="#FF4E00"/>
<path id="Vector_3" d="M46.9395 0.550293C49.4142 0.550293 51.4792 1.41216 53.1347 3.13589C54.8072 4.84256 55.6435 6.96736 55.6435 9.51029C55.6435 12.0532 54.8072 14.1866 53.1347 15.9103C51.4792 17.617 49.4142 18.4703 46.9395 18.4703H39.7715V0.550293H46.9395ZM46.9395 14.5279C48.356 14.5279 49.4995 14.0756 50.3699 13.1711C51.2574 12.2495 51.7011 11.0292 51.7011 9.51029C51.7011 7.99136 51.2574 6.77963 50.3699 5.87509C49.4995 4.95349 48.356 4.49269 46.9395 4.49269H43.8675V14.5279H46.9395Z" fill="#FF4E00"/>
<path id="Vector_4" d="M34.9007 5.67041H38.9967L34.6191 18.0864C33.9023 20.1003 32.9551 21.5424 31.7775 22.4128C30.617 23.2832 29.1322 23.6757 27.3231 23.5904V20.0064C28.2106 20.0064 28.8932 19.8443 29.3711 19.52C29.849 19.2128 30.233 18.6667 30.5231 17.8816L25.4287 5.67041H29.6527L32.4943 13.504L34.9007 5.67041Z" fill="currentColor"/>
<path id="Vector_5" d="M23.9611 16.8832C22.6469 18.1803 21.0427 18.8288 19.1483 18.8288C17.2539 18.8288 15.6496 18.1803 14.3355 16.8832C13.0213 15.5691 12.3643 13.9648 12.3643 12.0704C12.3643 10.176 13.0213 8.58028 14.3355 7.28321C15.6496 5.96908 17.2539 5.31201 19.1483 5.31201C21.0427 5.31201 22.6469 5.96908 23.9611 7.28321C25.2752 8.58028 25.9323 10.176 25.9323 12.0704C25.9323 13.9648 25.2752 15.5691 23.9611 16.8832ZM17.0491 14.2464C17.6123 14.8096 18.312 15.0912 19.1483 15.0912C19.9845 15.0912 20.6843 14.8096 21.2475 14.2464C21.8107 13.6832 22.0923 12.9579 22.0923 12.0704C22.0923 11.1829 21.8107 10.4576 21.2475 9.89441C20.6843 9.33121 19.9845 9.04961 19.1483 9.04961C18.312 9.04961 17.6123 9.33121 17.0491 9.89441C16.4859 10.4576 16.2043 11.1829 16.2043 12.0704C16.2043 12.9579 16.4859 13.6832 17.0491 14.2464Z" fill="currentColor"/>
<path id="Vector_6" d="M11.4806 4.49269H4.69659V7.94869H11.3526V11.8911H4.69659V18.4703H0.600586V0.550293H11.4806V4.49269Z" fill="currentColor"/>
</g>
</svg>
