<svg viewBox="0 0 55 55" fill="none" xmlns="http://www.w3.org/2000/svg">
<g id="bar-line-chart">
<path id="Icon" d="M45.5 45.5986V29.8486M27.5 45.5986V23.0986M9.5 45.5986L9.5 36.5986M30.665 11.9105L42.294 16.2714M24.7972 12.7507L12.2005 22.1982M47.8865 15.0871C49.2045 16.4052 49.2045 18.5421 47.8865 19.8601C46.5685 21.1781 44.4315 21.1781 43.1135 19.8601C41.7955 18.5421 41.7955 16.4052 43.1135 15.0871C44.4315 13.7691 46.5685 13.7691 47.8865 15.0871ZM11.8865 21.8371C13.2045 23.1552 13.2045 25.2921 11.8865 26.6101C10.5685 27.9281 8.43153 27.9281 7.11351 26.6101C5.7955 25.2921 5.7955 23.1552 7.11351 21.8371C8.43153 20.5191 10.5685 20.5191 11.8865 21.8371ZM29.8865 8.33715C31.2045 9.65517 31.2045 11.7921 29.8865 13.1101C28.5685 14.4281 26.4315 14.4281 25.1135 13.1101C23.7955 11.7921 23.7955 9.65517 25.1135 8.33715C26.4315 7.01913 28.5685 7.01913 29.8865 8.33715Z" stroke="#1A1538" stroke-width="3" stroke-linecap="round" stroke-linejoin="round"/>
</g>
</svg>
