<svg width="49" height="48" viewBox="0 0 49 48" fill="none" xmlns="http://www.w3.org/2000/svg">
<g id="bar-chart-circle-02">
<path id="Solid" fill-rule="evenodd" clip-rule="evenodd" d="M24.668 2C12.5177 2 2.66797 11.8497 2.66797 24C2.66797 36.1503 12.5177 46 24.668 46C36.8182 46 46.668 36.1503 46.668 24C46.668 11.8497 36.8182 2 24.668 2ZM34.668 14C34.668 12.8954 33.7725 12 32.668 12C31.5634 12 30.668 12.8954 30.668 14V34C30.668 35.1046 31.5634 36 32.668 36C33.7725 36 34.668 35.1046 34.668 34V14ZM24.668 20C25.7725 20 26.668 20.8954 26.668 22V34C26.668 35.1046 25.7725 36 24.668 36C23.5634 36 22.668 35.1046 22.668 34V22C22.668 20.8954 23.5634 20 24.668 20ZM16.668 28C17.7725 28 18.668 28.8954 18.668 30V34C18.668 35.1046 17.7725 36 16.668 36C15.5634 36 14.668 35.1046 14.668 34V30C14.668 28.8954 15.5634 28 16.668 28Z" fill="#FF4E00"/>
</g>
</svg>
