<svg width="49" height="48" viewBox="0 0 49 48" fill="none" xmlns="http://www.w3.org/2000/svg">
<g id="clock-check">
<g id="Solid">
<path fill-rule="evenodd" clip-rule="evenodd" d="M45.7482 33.5858C46.5292 34.3668 46.5292 35.6332 45.7482 36.4142L36.7482 45.4142C35.9672 46.1953 34.7008 46.1953 33.9198 45.4142L29.9198 41.4142C29.1387 40.6332 29.1387 39.3668 29.9198 38.5858C30.7008 37.8047 31.9671 37.8047 32.7482 38.5858L35.334 41.1716L42.9198 33.5858C43.7008 32.8047 44.9672 32.8047 45.7482 33.5858Z" fill="#FF4E00"/>
<path fill-rule="evenodd" clip-rule="evenodd" d="M24.334 2C12.1837 2 2.33398 11.8497 2.33398 24C2.33398 36.1503 12.1837 46 24.334 46C25.08 46 25.8172 45.9629 26.5441 45.8904C26.6044 45.8843 26.4537 45.8994 26.4678 45.8976C27.2399 45.7983 27.6017 44.785 27.0672 44.2191C27.0574 44.2087 27.114 44.2653 27.0913 44.2426C24.7482 41.8995 24.7482 38.1005 27.0913 35.7574C29.3531 33.4956 32.9712 33.417 35.3272 35.5215L40.0913 30.7574C41.2142 29.6345 42.6713 29.0498 44.1423 29.003C44.8518 28.9805 45.2065 28.9692 45.3955 28.8792C45.5858 28.7886 45.6894 28.6978 45.8042 28.521C45.9182 28.3454 45.9591 28.0967 46.041 27.5994C46.2337 26.4282 46.334 25.2258 46.334 24C46.334 11.8497 36.4842 2 24.334 2ZM24.334 10C25.4386 10 26.334 10.8954 26.334 12V22.7639L33.2284 26.2111C34.2164 26.7051 34.6168 27.9065 34.1228 28.8944C33.6289 29.8824 32.4275 30.2828 31.4396 29.7889L23.4396 25.7889C22.762 25.4501 22.334 24.7575 22.334 24V12C22.334 10.8954 23.2294 10 24.334 10Z" fill="#FF4E00"/>
</g>
</g>
</svg>
