<svg width="49" height="48" viewBox="0 0 49 48" fill="none" xmlns="http://www.w3.org/2000/svg">
<g id="coins-hand">
<g id="Solid">
<path d="M33.5 4C28.5294 4 24.5 8.02944 24.5 13C24.5 17.9706 28.5294 22 33.5 22C38.4706 22 42.5 17.9706 42.5 13C42.5 8.02944 38.4706 4 33.5 4Z" fill="currentColor"/>
<path d="M24.5636 3.55852C22.0611 5.92797 20.5 9.28168 20.5 13C20.5 15.3942 21.1472 17.6372 22.2762 19.5637C21.4018 19.8469 20.4688 20 19.5 20C14.5294 20 10.5 15.9706 10.5 11C10.5 6.02944 14.5294 2 19.5 2C21.3777 2 23.121 2.575 24.5636 3.55852Z" fill="currentColor"/>
<path d="M35.9178 31.7866C35.9178 33.3692 34.871 34.7077 33.4281 35.1551L34.3559 35.1121C35.3698 35.1121 36.3557 34.7932 37.166 34.2009L42.8237 30.0731C44.2358 29.0435 46.2123 29.1802 47.4605 30.3943C48.8468 31.7429 48.8468 33.9275 47.4605 35.2738L42.606 39.9961C41.2992 41.2672 39.6319 42.1352 37.8194 42.4883L30.9579 43.8232C29.5974 44.0874 28.1946 44.0555 26.8481 43.7275L20.6424 42.2195C19.9 42.0372 19.139 41.9461 18.3732 41.9461C17.5602 41.9461 17.1537 41.9461 16.8276 41.8297C16.2627 41.628 15.8181 41.1834 15.6164 40.6185C15.5 40.2924 15.5 39.8859 15.5 39.0729V32.2146C15.5 31.643 15.5 31.3572 15.5734 31.0937C15.6384 30.8604 15.7453 30.6408 15.8888 30.4457C16.0508 30.2254 16.2758 30.049 16.7256 29.6963L19.0968 27.8373C19.0968 27.8373 23.0263 26 25.1971 26C26.0964 26 26.991 26.1094 27.8644 26.326L33.2318 27.6603C34.8102 28.0515 35.9178 29.4627 35.9178 31.081V31.7866Z" fill="currentColor"/>
<path fill-rule="evenodd" clip-rule="evenodd" d="M7.44707 26C7.4647 26 7.48235 26 7.50001 26C7.51767 26 7.53533 26 7.55296 26C7.97305 25.9999 8.38229 25.9999 8.73046 26.0236C9.11121 26.0496 9.56266 26.1106 10.0307 26.3045C11.0109 26.7104 11.7895 27.4891 12.1955 28.4692C12.3894 28.9373 12.4504 29.3888 12.4763 29.7695C12.5001 30.1177 12.5001 30.5269 12.5 30.947C12.5 30.9647 12.5 30.9823 12.5 31L12.5 41.0529C12.5001 41.473 12.5001 41.8823 12.4763 42.2304C12.4504 42.6112 12.3894 43.0626 12.1955 43.5307C11.7895 44.5108 11.0109 45.2895 10.0307 45.6955C9.56265 45.8894 9.1112 45.9503 8.73046 45.9763C8.38229 46.0001 7.97305 46 7.55297 46H7.44705C7.02696 46 6.61772 46.0001 6.26955 45.9763C5.88881 45.9503 5.43736 45.8894 4.96927 45.6955C3.98916 45.2895 3.21046 44.5108 2.80449 43.5307C2.6106 43.0626 2.54965 42.6112 2.52368 42.2304C2.49992 41.8823 2.49996 41.473 2.5 41.0529L2.50001 31C2.50001 30.9823 2.50001 30.9647 2.5 30.947C2.49996 30.5269 2.49992 30.1177 2.52368 29.7695C2.54965 29.3888 2.6106 28.9373 2.80449 28.4692C3.21047 27.4891 3.98916 26.7104 4.96927 26.3045C5.43736 26.1106 5.88881 26.0496 6.26955 26.0236C6.61772 25.9999 7.02698 25.9999 7.44707 26Z" fill="currentColor"/>
</g>
</g>
</svg>
