<svg width="48" height="48" viewBox="0 0 48 48" fill="none" xmlns="http://www.w3.org/2000/svg">
<g id="coins-02">
<g id="Solid">
<path d="M18 10C17.3553 10 16.7178 10.0305 16.0888 10.0901C18.8422 5.25806 24.0406 2 30 2C38.8366 2 46 9.16344 46 18C46 23.9594 42.7419 29.1578 37.9099 31.9112C37.9695 31.2822 38 30.6447 38 30C38 18.9543 29.0457 10 18 10Z" fill="#FF4E00"/>
<path fill-rule="evenodd" clip-rule="evenodd" d="M2 30C2 22.3994 7.29972 16.0366 14.4054 14.4054C15.5608 14.1401 16.7641 14 18 14C26.8366 14 34 21.1634 34 30C34 31.2359 33.8599 32.4392 33.5946 33.5946C31.9634 40.7003 25.6006 46 18 46C9.16344 46 2 38.8366 2 30ZM18.9437 22.2367C19.594 22.5847 20 23.2624 20 24V33H21C22.1046 33 23 33.8954 23 35C23 36.1046 22.1046 37 21 37H15C13.8954 37 13 36.1046 13 35C13 33.8954 13.8954 33 15 33H16V27.7321C15.0941 28.2563 13.9246 27.9925 13.3359 27.1094C12.7232 26.1903 12.9715 24.9486 13.8906 24.3359L16.8906 22.3359C17.5043 21.9268 18.2934 21.8886 18.9437 22.2367Z" fill="#FF4E00"/>
</g>
</g>
</svg>
