<svg viewBox="0 0 72 72" fill="none" xmlns="http://www.w3.org/2000/svg">
<g id="credit-card-check">
<path id="Icon" d="M48 54L54 60L66 48M66 30H6M66 36V24.6C66 21.2397 66 19.5595 65.346 18.2761C64.7708 17.1471 63.8529 16.2292 62.7239 15.654C61.4405 15 59.7603 15 56.4 15H15.6C12.2397 15 10.5595 15 9.27606 15.654C8.14709 16.2292 7.2292 17.1471 6.65396 18.2761C6 19.5595 6 21.2397 6 24.6V47.4C6 50.7603 6 52.4405 6.65396 53.7239C7.2292 54.8529 8.14708 55.7708 9.27606 56.346C10.5595 57 12.2397 57 15.6 57H36" stroke="#FF4E00" stroke-width="4" stroke-linecap="round" stroke-linejoin="round"/>
</g>
</svg>
