<svg viewBox="0 0 72 72" fill="none" xmlns="http://www.w3.org/2000/svg">
<g id="cube-01">
<path id="Icon" d="M61.4999 21.832L35.9999 35.9987M35.9999 35.9987L10.4999 21.832M35.9999 35.9987L36 64.4988M63 48.1745V23.8231C63 22.7952 63 22.2812 62.8485 21.8228C62.7146 21.4173 62.4955 21.0451 62.2061 20.731C61.8789 20.376 61.4297 20.1264 60.5311 19.6272L38.3311 7.29384C37.4803 6.82116 37.0549 6.58482 36.6044 6.49217C36.2056 6.41016 35.7944 6.41016 35.3957 6.49217C34.9451 6.58482 34.5197 6.82116 33.6689 7.29384L11.4689 19.6272C10.5703 20.1264 10.1211 20.376 9.7939 20.731C9.50447 21.0451 9.28544 21.4173 9.15145 21.8228C9 22.2812 9 22.7952 9 23.8231V48.1745C9 49.2024 9 49.7163 9.15145 50.1747C9.28544 50.5803 9.50447 50.9525 9.7939 51.2666C10.1211 51.6216 10.5703 51.8712 11.4689 52.3704L33.6689 64.7037C34.5197 65.1764 34.9451 65.4127 35.3957 65.5054C35.7944 65.5874 36.2056 65.5874 36.6044 65.5054C37.0549 65.4127 37.4803 65.1764 38.3311 64.7037L60.5311 52.3704C61.4297 51.8712 61.8789 51.6216 62.2061 51.2666C62.4955 50.9525 62.7146 50.5803 62.8485 50.1747C63 49.7163 63 49.2024 63 48.1745Z" stroke="#1A1538" stroke-width="4" stroke-linecap="round" stroke-linejoin="round"/>
</g>
</svg>
