<svg width="48" height="48" viewBox="0 0 48 48" fill="none" xmlns="http://www.w3.org/2000/svg">
<g id="database-01">
<g id="Solid">
<path d="M4.82971 27C5.06972 27 5.29597 27.1059 5.46383 27.2775C5.68643 27.505 5.92277 27.7144 6.16412 27.9056C7.32182 28.823 8.87425 29.5604 10.6167 30.1421C14.1222 31.3124 18.8465 32 24 32C29.1535 32 33.8778 31.3124 37.3833 30.1421C39.1258 29.5604 40.6782 28.823 41.8359 27.9056C42.0772 27.7144 42.3136 27.505 42.5362 27.2775C42.704 27.1059 42.9303 27 43.1703 27C43.6285 27 44 27.3715 44 27.8297V38C44 39.6988 42.9736 41.0041 41.8359 41.9056C40.6782 42.823 39.1258 43.5604 37.3833 44.1421C33.8778 45.3124 29.1535 46 24 46C18.8465 46 14.1222 45.3124 10.6167 44.1421C8.87425 43.5604 7.32182 42.823 6.16412 41.9056C5.02639 41.0041 4 39.6988 4 38V27.8297C4 27.3715 4.37147 27 4.82971 27Z" fill="#FF4E00"/>
<path fill-rule="evenodd" clip-rule="evenodd" d="M41.8234 6.09371C42.9622 6.99118 44 8.29611 44 10V20C44 21.6988 42.9736 23.0041 41.8359 23.9056C40.6782 24.823 39.1258 25.5604 37.3833 26.1421C33.8778 27.3124 29.1535 28 24 28C18.8465 28 14.1222 27.3124 10.6167 26.1421C8.87425 25.5604 7.32182 24.823 6.16412 23.9056C5.02639 23.0041 4 21.6988 4 20V10C4 8.29611 5.03779 6.99118 6.17658 6.09371C7.33792 5.17846 8.89447 4.44171 10.6396 3.85999C14.1508 2.68959 18.8743 2 24 2C29.1257 2 33.8492 2.68959 37.3604 3.85999C39.1055 4.44171 40.6621 5.17846 41.8234 6.09371ZM8 9.99987C8 9.99987 7.99997 9.98958 8.00611 9.96942C8.0129 9.94713 8.02966 9.9031 8.07015 9.83714C8.15504 9.69885 8.32816 9.49094 8.65248 9.23535C9.31283 8.71493 10.3923 8.1588 11.9045 7.65473C14.908 6.65355 19.1846 6 24 6C28.8154 6 33.092 6.65355 36.0955 7.65473C37.6077 8.1588 38.6872 8.71493 39.3475 9.23535C39.6718 9.49094 39.845 9.69885 39.9299 9.83714C39.9703 9.9031 39.9871 9.94713 39.9939 9.96942C40 9.98958 40 10.0004 40 10.0004C40 10.0004 39.9997 10.0114 39.9939 10.0306C39.9871 10.0529 39.9703 10.0969 39.9299 10.1629C39.845 10.3011 39.6718 10.5091 39.3475 10.7646C38.6872 11.2851 37.6077 11.8412 36.0955 12.3453C33.092 13.3464 28.8154 14 24 14C19.1846 14 14.908 13.3464 11.9045 12.3453C10.3923 11.8412 9.31283 11.2851 8.65248 10.7646C8.32816 10.5091 8.15504 10.3011 8.07015 10.1629C8.02966 10.0969 8.0129 10.0529 8.00611 10.0306C8.00035 10.0117 8 9.99987 8 9.99987Z" fill="#FF4E00"/>
</g>
</g>
</svg>
