<svg viewBox="0 0 72 72" fill="none" xmlns="http://www.w3.org/2000/svg">
<g id="dataflow-04">
<path id="Icon" d="M12 54V53.4C12 48.3595 12 45.8393 12.9809 43.9141C13.8438 42.2206 15.2206 40.8438 16.9141 39.9809C18.8393 39 21.3595 39 26.4 39H45.6C50.6405 39 53.1607 39 55.0859 39.9809C56.7794 40.8438 58.1562 42.2206 59.0191 43.9141C60 45.8393 60 48.3595 60 53.4V54M12 54C8.68629 54 6 56.6863 6 60C6 63.3137 8.68629 66 12 66C15.3137 66 18 63.3137 18 60C18 56.6863 15.3137 54 12 54ZM60 54C56.6863 54 54 56.6863 54 60C54 63.3137 56.6863 66 60 66C63.3137 66 66 63.3137 66 60C66 56.6863 63.3137 54 60 54ZM36 54C32.6863 54 30 56.6863 30 60C30 63.3137 32.6863 66 36 66C39.3137 66 42 63.3137 42 60C42 56.6863 39.3137 54 36 54ZM36 54V24M18 24H54C56.7956 24 58.1935 24 59.2961 23.5433C60.7663 22.9343 61.9343 21.7663 62.5433 20.2961C63 19.1935 63 17.7956 63 15C63 12.2044 63 10.8065 62.5433 9.7039C61.9343 8.23373 60.7663 7.06569 59.2961 6.45672C58.1935 6 56.7956 6 54 6H18C15.2043 6 13.8065 6 12.7039 6.45672C11.2337 7.06569 10.0657 8.23373 9.45672 9.7039C9 10.8065 9 12.2044 9 15C9 17.7956 9 19.1935 9.45672 20.2961C10.0657 21.7663 11.2337 22.9343 12.7039 23.5433C13.8065 24 15.2044 24 18 24Z" stroke="#1A1538" stroke-width="4" stroke-linecap="round" stroke-linejoin="round"/>
</g>
</svg>
