<svg viewBox="0 0 72 72" fill="none" xmlns="http://www.w3.org/2000/svg">
<g id="face-wink">
<path id="Icon" d="M24 42C24 42 28.5 48 36 48C43.5 48 48 42 48 42M45 27H45.03M24 27H30M66 36C66 52.5685 52.5685 66 36 66C19.4315 66 6 52.5685 6 36C6 19.4315 19.4315 6 36 6C52.5685 6 66 19.4315 66 36ZM46.5 27C46.5 27.8284 45.8284 28.5 45 28.5C44.1716 28.5 43.5 27.8284 43.5 27C43.5 26.1716 44.1716 25.5 45 25.5C45.8284 25.5 46.5 26.1716 46.5 27Z" stroke="#1A1538" stroke-width="4" stroke-linecap="round" stroke-linejoin="round"/>
</g>
</svg>
