<svg width="56" height="56" viewBox="0 0 56 56" fill="none" xmlns="http://www.w3.org/2000/svg">
<g id="file-check-02">
<g id="Solid">
<path fill-rule="evenodd" clip-rule="evenodd" d="M35.563 2.33301H20.437C18.5587 2.33298 17.0085 2.33296 15.7457 2.43613C14.4342 2.54329 13.2285 2.77327 12.0961 3.35028C10.3399 4.2451 8.91209 5.67292 8.01728 7.4291C7.44026 8.56155 7.21028 9.76719 7.10312 11.0788C6.99995 12.3415 6.99997 13.8917 7 15.7699V40.2294C6.99997 42.1076 6.99995 43.6578 7.10312 44.9206C7.21028 46.2322 7.44026 47.4378 8.01728 48.5703C8.91209 50.3264 10.3399 51.7542 12.0961 52.6491C13.2285 53.2261 14.4342 53.4561 15.7457 53.5632C17.0085 53.6664 18.5587 53.6664 20.4369 53.6663H30.3677C30.4364 53.6663 30.4708 53.6663 30.491 53.6656C31.4913 53.6309 31.9864 52.4356 31.3037 51.7038C31.2899 51.689 31.2655 51.6647 31.2169 51.6161C28.4832 48.8824 28.4832 44.4503 31.2169 41.7166C33.8556 39.0779 38.0767 38.9862 40.8254 41.4415L46.3836 35.8833C46.8184 35.4484 47.2962 35.0828 47.8033 34.7863C48.3217 34.4832 48.5809 34.3316 48.7033 34.1946C48.8316 34.051 48.8843 33.9592 48.9435 33.776C49 33.6011 49 33.3709 49 32.9106V15.7699C49 13.8917 49.0001 12.3415 48.8969 11.0788C48.7897 9.76719 48.5597 8.56155 47.9827 7.4291C47.0879 5.67292 45.6601 4.2451 43.9039 3.35028C42.7715 2.77327 41.5658 2.54329 40.2543 2.43613C38.9915 2.33296 37.4413 2.33298 35.563 2.33301ZM18.6667 20.9997C17.378 20.9997 16.3333 22.0443 16.3333 23.333C16.3333 24.6217 17.378 25.6663 18.6667 25.6663H32.6667C33.9553 25.6663 35 24.6217 35 23.333C35 22.0443 33.9553 20.9997 32.6667 20.9997H18.6667ZM16.3333 32.6663C16.3333 31.3777 17.378 30.333 18.6667 30.333H23.3333C24.622 30.333 25.6667 31.3777 25.6667 32.6663C25.6667 33.955 24.622 34.9997 23.3333 34.9997H18.6667C17.378 34.9997 16.3333 33.955 16.3333 32.6663ZM18.6667 11.6663C17.378 11.6663 16.3333 12.711 16.3333 13.9997C16.3333 15.2883 17.378 16.333 18.6667 16.333H37.3333C38.622 16.333 39.6667 15.2883 39.6667 13.9997C39.6667 12.711 38.622 11.6663 37.3333 11.6663H18.6667Z" fill="#1A1538"/>
<path d="M52.9833 42.4829C53.8945 41.5717 53.8945 40.0943 52.9833 39.1831C52.072 38.2719 50.5946 38.2719 49.6834 39.1831L40.8333 48.0332L37.8166 45.0164C36.9054 44.1052 35.428 44.1052 34.5168 45.0164C33.6055 45.9277 33.6055 47.405 34.5168 48.3163L39.1834 52.9829C40.0946 53.8941 41.572 53.8941 42.4833 52.9829L52.9833 42.4829Z" fill="#1A1538"/>
</g>
</g>
</svg>
