<svg width="49" height="48" viewBox="0 0 49 48" fill="none" xmlns="http://www.w3.org/2000/svg">
<g id="flash">
<path id="Solid" d="M28.4843 4.24818C28.5944 3.36718 28.1105 2.51905 27.2961 2.16551C26.4817 1.81197 25.5317 2.03767 24.9633 2.71974L7.10435 24.1504C6.79572 24.5207 6.48312 24.8956 6.25552 25.2252C6.04027 25.5368 5.64725 26.1496 5.63511 26.9549C5.62121 27.8768 6.03203 28.7539 6.74918 29.3335C7.37561 29.8397 8.09794 29.93 8.47516 29.9642C8.874 30.0003 9.36217 30.0002 9.84415 30.0001L22.2342 30.0001L20.5152 43.752C20.405 44.633 20.8889 45.4812 21.7033 45.8347C22.5178 46.1883 23.4678 45.9625 24.0362 45.2805L41.8951 23.8498C42.2037 23.4796 42.5163 23.1046 42.7439 22.7751C42.9592 22.4634 43.3522 21.8507 43.3643 21.0453C43.3782 20.1234 42.9674 19.2463 42.2503 18.6668C41.6238 18.1605 40.9015 18.0702 40.5243 18.036C40.1254 17.9999 39.6372 18 39.1552 18.0001L26.7653 18.0001L28.4843 4.24818Z" fill="currentColor"/>
</g>
</svg>
