<svg viewBox="0 0 55 55" fill="none" xmlns="http://www.w3.org/2000/svg">
<g id="heart-square">
<g id="Icon">
<path d="M7.25 18.1486C7.25 14.3683 7.25 12.4781 7.98571 11.0342C8.63285 9.7641 9.66547 8.73148 10.9356 8.08434C12.3795 7.34863 14.2696 7.34863 18.05 7.34863H36.95C40.7304 7.34863 42.6205 7.34863 44.0644 8.08434C45.3345 8.73148 46.3671 9.7641 47.0143 11.0342C47.75 12.4781 47.75 14.3683 47.75 18.1486V37.0486C47.75 40.829 47.75 42.7192 47.0143 44.1631C46.3671 45.4332 45.3345 46.4658 44.0644 47.1129C42.6205 47.8486 40.7304 47.8486 36.95 47.8486H18.05C14.2696 47.8486 12.3795 47.8486 10.9356 47.1129C9.66547 46.4658 8.63285 45.4332 7.98571 44.1631C7.25 42.7192 7.25 40.829 7.25 37.0486V18.1486Z" stroke="#1A1538" stroke-width="3" stroke-linecap="round" stroke-linejoin="round"/>
<path fill-rule="evenodd" clip-rule="evenodd" d="M27.4923 21.0014C25.243 18.3718 21.4922 17.6645 18.674 20.0724C15.8558 22.4803 15.4591 26.5062 17.6722 29.3541C19.0897 31.1782 22.7201 34.5607 25.147 36.7569C25.9535 37.4868 26.3568 37.8517 26.8398 37.9981C27.255 38.1239 27.7295 38.1239 28.1448 37.9981C28.6278 37.8517 29.031 37.4868 29.8376 36.7569C32.2645 34.5607 35.8948 31.1782 37.3124 29.3541C39.5255 26.5062 39.1772 22.455 36.3106 20.0724C33.4439 17.6898 29.7416 18.3718 27.4923 21.0014Z" stroke="#1A1538" stroke-width="3" stroke-linecap="round" stroke-linejoin="round"/>
</g>
</g>
</svg>
