<svg width="267" height="200" viewBox="0 0 267 200" fill="none" xmlns="http://www.w3.org/2000/svg">
<path d="M113.028 19.9559C112.895 20.8685 113.127 21.7968 113.674 22.5392C114.221 23.2817 115.039 23.7784 115.95 23.9216C116.124 23.9386 116.297 23.9556 116.471 23.9556C117.138 23.9552 117.79 23.7638 118.35 23.4038C118.911 23.0439 119.356 22.5307 119.634 21.9251C119.912 21.3195 120.009 20.6469 119.916 19.9873C119.823 19.3277 119.542 18.7087 119.108 18.2039C118.673 17.699 118.103 17.3295 117.464 17.1392C116.826 16.9489 116.146 16.9458 115.506 17.1303C114.866 17.3147 114.292 17.679 113.853 18.1799C113.414 18.6808 113.127 19.2972 113.028 19.9559Z" fill="#1A1538"/>
<path d="M141.538 24.9616C141.402 25.8771 141.635 26.8089 142.187 27.5524C142.738 28.2959 143.561 28.7901 144.477 28.9265C144.65 28.947 144.824 28.9586 144.998 28.9613C145.664 28.9577 146.314 28.7635 146.872 28.4016C147.431 28.0397 147.874 27.5252 148.149 26.9193C148.424 26.3133 148.52 25.6413 148.424 24.9827C148.329 24.3241 148.047 23.7066 147.612 23.2033C147.176 22.7001 146.606 22.3322 145.968 22.1432C145.33 21.9543 144.651 21.9522 144.012 22.1373C143.372 22.3223 142.8 22.6867 142.361 23.1873C141.923 23.6879 141.637 24.3036 141.538 24.9616Z" fill="#1A1538"/>
<path d="M169.538 29.9616C169.402 30.8771 169.635 31.8089 170.187 32.5524C170.738 33.2959 171.561 33.7901 172.477 33.9265C172.65 33.947 172.824 33.9586 172.998 33.9613C173.664 33.9577 174.314 33.7635 174.872 33.4016C175.431 33.0397 175.874 32.5252 176.149 31.9193C176.424 31.3133 176.52 30.6413 176.424 29.9827C176.329 29.3241 176.047 28.7066 175.612 28.2033C175.176 27.7001 174.606 27.3322 173.968 27.1432C173.33 26.9543 172.651 26.9522 172.012 27.1373C171.372 27.3223 170.8 27.6867 170.361 28.1873C169.923 28.6879 169.637 29.3036 169.538 29.9616Z" fill="#1A1538"/>
<path d="M126.786 22.0255C126.65 22.9363 126.882 23.8636 127.43 24.6038C127.977 25.3441 128.797 25.8366 129.707 25.9733C129.885 26.0017 130.066 26.0133 130.246 26.0081C130.91 26.0032 131.559 25.808 132.115 25.4458C132.671 25.0836 133.112 24.5694 133.385 23.9643C133.659 23.3593 133.752 22.6886 133.656 22.0317C133.56 21.3749 133.277 20.7594 132.842 20.2583C132.406 19.7572 131.836 19.3914 131.199 19.2043C130.562 19.0172 129.885 19.0165 129.248 19.2025C128.611 19.3885 128.04 19.7532 127.604 20.2536C127.167 20.7539 126.883 21.3688 126.786 22.0255Z" fill="#FF4E00"/>
<path d="M157.103 24.5429C156.469 24.9494 155.984 25.5502 155.721 26.2553C155.457 26.9605 155.429 27.732 155.64 28.4545C155.852 29.177 156.292 29.8116 156.894 30.2633C157.496 30.715 158.228 30.9595 158.981 30.9602C159.64 30.9572 160.285 30.7704 160.843 30.4209C161.621 29.9246 162.171 29.1394 162.371 28.238C162.571 27.3365 162.405 26.3926 161.909 25.6135C161.414 24.8345 160.629 24.2841 159.728 24.0834C158.826 23.8826 157.882 24.0479 157.103 24.5429Z" fill="#FF4E00"/>
<path d="M168.103 42.5429C167.469 42.9494 166.984 43.5502 166.721 44.2553C166.457 44.9605 166.429 45.732 166.64 46.4545C166.852 47.177 167.292 47.8116 167.894 48.2633C168.496 48.715 169.228 48.9595 169.981 48.9602C170.64 48.9572 171.285 48.7704 171.843 48.4209C172.621 47.9246 173.171 47.1394 173.371 46.238C173.571 45.3365 173.405 44.3926 172.909 43.6135C172.414 42.8345 171.629 42.2841 170.728 42.0834C169.826 41.8826 168.882 42.0479 168.103 42.5429Z" fill="#FF4E00"/>
<path d="M33.4563 52.8085C33.6116 52.1374 33.5642 51.4353 33.3201 50.7912C33.0761 50.147 32.6463 49.5899 32.0852 49.1902C31.5242 48.7906 30.8571 48.5665 30.1686 48.5464C29.4801 48.5263 28.801 48.711 28.2176 49.0771C27.6341 49.4433 27.1725 49.9744 26.8912 50.6032C26.6099 51.2319 26.5216 51.9301 26.6375 52.6091C26.7533 53.2881 27.0681 53.9174 27.542 54.4173C28.0159 54.9172 28.6275 55.2652 29.2994 55.4172C29.5488 55.4849 29.806 55.52 30.0645 55.5216C30.8541 55.5225 31.6204 55.2541 32.237 54.7609C32.8536 54.2676 33.2837 53.579 33.4563 52.8085Z" fill="#1A1538"/>
<path d="M27.3684 79.2636C27.5237 78.5925 27.4763 77.8904 27.2323 77.2463C26.9882 76.6021 26.5584 76.0449 25.9973 75.6453C25.4363 75.2457 24.7692 75.0216 24.0807 75.0015C23.3922 74.9814 22.7132 75.1661 22.1297 75.5322C21.5463 75.8984 21.0846 76.4295 20.8033 77.0582C20.522 77.687 20.4337 78.3851 20.5496 79.0641C20.6654 79.7432 20.9802 80.3725 21.4541 80.8724C21.928 81.3723 22.5396 81.7203 23.2115 81.8723C23.4609 81.94 23.7181 81.9751 23.9766 81.9767C24.7662 81.9775 25.5325 81.7092 26.1491 81.216C26.7657 80.7227 27.1958 80.0341 27.3684 79.2636Z" fill="#1A1538"/>
<path d="M40.3564 25.2485C40.51 24.579 40.4615 23.879 40.2172 23.237C39.9728 22.5951 39.5436 22.04 38.9837 21.6421C38.4239 21.2441 37.7585 21.0212 37.0719 21.0014C36.3853 20.9817 35.7083 21.166 35.1265 21.5312C34.5447 21.8963 34.0843 22.4258 33.8034 23.0526C33.5226 23.6795 33.434 24.3756 33.5489 25.0528C33.6638 25.73 33.9769 26.3579 34.4487 26.8571C34.9205 27.3563 35.5298 27.7044 36.1995 27.8572C36.457 27.9116 36.7193 27.9406 36.9825 27.9438C37.7668 27.942 38.5273 27.6746 39.14 27.1851C39.7527 26.6956 40.1814 26.013 40.3564 25.2485Z" fill="#1A1538"/>
<path d="M36.5682 39.2436C36.7193 38.573 36.6683 37.8727 36.4218 37.2311C36.1752 36.5895 35.7441 36.0352 35.1829 35.6384C34.6216 35.2415 33.9554 35.0198 33.2683 35.0013C32.5812 34.9827 31.9039 35.1681 31.3221 35.5341C30.7402 35.9 30.2798 36.4301 29.999 37.0575C29.7181 37.6849 29.6294 38.3814 29.744 39.0591C29.8587 39.7369 30.1715 40.3655 30.643 40.8656C31.1146 41.3657 31.7237 41.715 32.3936 41.8692C32.651 41.9242 32.9133 41.9535 33.1765 41.9567C33.9654 41.9546 34.7302 41.6852 35.3462 41.1925C35.9622 40.6997 36.393 40.0127 36.5682 39.2436Z" fill="#FF4E00"/>
<path d="M27.7339 62.2011C26.8366 62.0016 25.8967 62.1654 25.1197 62.6566C24.3427 63.1479 23.7918 63.9268 23.5872 64.823C23.3827 65.7192 23.5412 66.66 24.0281 67.4397C24.515 68.2195 25.2908 68.7748 26.1858 68.9844C26.4419 69.0471 26.7051 69.0762 26.9688 69.071C27.8249 69.0716 28.6511 68.7565 29.2893 68.1859C29.9275 67.6153 30.3327 66.8294 30.4275 65.9786C30.5222 65.1278 30.2998 64.2719 29.8028 63.5749C29.3058 62.8779 28.5692 62.3888 27.7339 62.2011Z" fill="#FF4E00"/>
<path d="M41.9687 11.9604C42.4724 11.9604 42.9704 11.8537 43.4299 11.6475C43.8461 11.4563 44.2206 11.185 44.5318 10.8489C44.8431 10.5129 45.0849 10.1188 45.2436 9.68908C45.4023 9.25941 45.4747 8.80266 45.4566 8.34498C45.4385 7.8873 45.3303 7.43769 45.1382 7.02189C44.9461 6.60609 44.6738 6.23227 44.337 5.92184C44.0002 5.61141 43.6055 5.37047 43.1755 5.21281C42.7454 5.05515 42.2885 4.98387 41.8309 5.00306C41.3732 5.02224 40.9239 5.13151 40.5085 5.32461C39.7917 5.65932 39.2102 6.22823 38.8599 6.93762C38.5096 7.647 38.4113 8.45455 38.5813 9.22723C38.7514 9.99991 39.1795 10.6916 39.7952 11.1884C40.411 11.6853 41.1776 11.9575 41.9687 11.9604Z" fill="#FF4E00"/>
<path d="M88.4354 19.781C88.6073 19.8157 88.7823 19.8334 88.9577 19.8336C89.8803 19.8584 90.7766 19.5244 91.4581 18.9019C92.1396 18.2794 92.5532 17.4169 92.6119 16.4958C92.6706 15.5746 92.3698 14.6666 91.7729 13.9627C91.1759 13.2587 90.3292 12.8137 89.4109 12.7211C88.4925 12.6285 87.574 12.8957 86.8486 13.4663C86.1231 14.037 85.6472 14.8667 85.5209 15.781C85.3945 16.6953 85.6277 17.623 86.1712 18.369C86.7148 19.1149 87.5264 19.6211 88.4354 19.781Z" fill="#1A1538"/>
<path d="M103.219 14.9648C102.306 14.8287 101.376 15.061 100.634 15.6106C99.8919 16.1602 99.3987 16.982 99.2626 17.8953C99.1266 18.8086 99.3589 19.7385 99.9085 20.4805C100.458 21.2224 101.28 21.7157 102.193 21.8518C102.367 21.8722 102.541 21.8838 102.715 21.8865C103.595 21.8877 104.443 21.5555 105.087 20.9568C105.732 20.3582 106.126 19.5375 106.19 18.6601C106.253 17.7827 105.983 16.9137 105.431 16.228C104.88 15.5424 104.09 15.091 103.219 14.9648Z" fill="#FF4E00"/>
<path d="M71.7563 13.7642C71.6857 14.2167 71.7054 14.6787 71.8144 15.1235C71.9233 15.5684 72.1193 15.9873 72.391 16.356C72.6626 16.7247 73.0047 17.0359 73.3973 17.2717C73.7899 17.5075 74.2253 17.6632 74.6784 17.7299C74.8525 17.7469 75.0258 17.7647 75.1998 17.7647C75.8656 17.764 76.5173 17.5724 77.0774 17.2125C77.6375 16.8527 78.0827 16.3396 78.36 15.7343C78.6373 15.129 78.7351 14.4569 78.6418 13.7977C78.5485 13.1385 78.2681 12.5198 77.8337 12.0152C77.3994 11.5106 76.8294 11.1412 76.1914 10.9509C75.5534 10.7606 74.8742 10.7572 74.2344 10.9414C73.5945 11.1255 73.021 11.4893 72.5817 11.9897C72.1425 12.49 71.856 13.1059 71.7563 13.7642Z" fill="#FF4E00"/>
<path d="M56.5394 10.9768C56.4707 11.428 56.492 11.8884 56.6019 12.3314C56.7118 12.7744 56.9081 13.1913 57.1797 13.5582C57.4512 13.9251 57.7926 14.2347 58.1842 14.4692C58.5758 14.7037 59.0098 14.8585 59.4614 14.9246C59.6281 14.9523 59.797 14.9636 59.9658 14.9586C60.6332 14.9617 61.2874 14.7729 61.8504 14.4145C62.4134 14.0562 62.8615 13.5435 63.1412 12.9375C63.4209 12.3316 63.5204 11.658 63.4279 10.9971C63.3354 10.3361 63.0548 9.71574 62.6194 9.20988C62.1841 8.70401 61.6125 8.33401 60.9728 8.144C60.333 7.95399 59.6521 7.95198 59.0112 8.13822C58.3704 8.32445 57.7966 8.69107 57.3583 9.19436C56.92 9.69766 56.6358 10.3164 56.5394 10.9768Z" fill="#1A1538"/>
<path d="M190.034 87.5327C189.424 86.8409 188.564 86.4197 187.643 86.3619C186.722 86.304 185.816 86.6142 185.124 87.2242L180.199 91.5686L175.698 86.6454C175.075 85.9646 174.208 85.5589 173.286 85.5177C172.364 85.4765 171.464 85.803 170.783 86.4256C170.102 87.0481 169.697 87.9156 169.656 88.8372C169.614 89.7588 169.941 90.6591 170.563 91.3399L174.98 96.171L170.149 100.432C169.806 100.734 169.526 101.101 169.326 101.511C169.125 101.921 169.006 102.367 168.978 102.823C168.949 103.279 169.011 103.736 169.159 104.168C169.307 104.6 169.538 104.999 169.84 105.342C170.142 105.684 170.509 105.964 170.919 106.165C171.33 106.366 171.775 106.484 172.231 106.513C172.687 106.541 173.144 106.48 173.576 106.332C174.009 106.184 174.407 105.952 174.75 105.65L179.675 101.306L184.176 106.229C184.799 106.907 185.666 107.311 186.586 107.351C187.506 107.391 188.405 107.065 189.085 106.443C189.765 105.822 190.17 104.956 190.212 104.035C190.255 103.115 189.93 102.216 189.31 101.535L184.894 96.7039L189.725 92.4423C190.417 91.8321 190.839 90.9721 190.897 90.0514C190.954 89.1307 190.644 88.2247 190.034 87.5327Z" fill="#FF4E00"/>
<path d="M228.229 128.015C226.336 126.122 223.881 124.893 221.231 124.514C218.581 124.134 215.88 124.623 213.531 125.908L211.116 123.492C217.988 115.301 221.429 104.771 220.72 94.1028C220.011 83.4341 215.207 73.452 207.312 66.2419C199.417 59.0318 189.041 55.1515 178.352 55.4117C167.663 55.6719 157.488 60.0524 149.952 67.638C142.417 75.2237 138.105 85.4277 137.916 96.1182C137.727 106.809 141.676 117.159 148.939 125.006C156.201 132.853 166.215 137.59 176.888 138.228C187.562 138.865 198.068 135.354 206.213 128.427L208.618 130.832C207.336 133.18 206.848 135.879 207.227 138.527C207.606 141.175 208.831 143.629 210.719 145.524L231.176 165.98C233.498 168.302 236.647 169.606 239.93 169.606C243.214 169.606 246.363 168.302 248.685 165.98C251.007 163.658 252.312 160.509 252.312 157.225C252.312 153.942 251.007 150.793 248.685 148.471L228.229 128.015ZM203.862 121.157C198.997 126.022 192.799 129.334 186.052 130.677C179.305 132.019 172.311 131.33 165.956 128.697C159.6 126.065 154.168 121.606 150.346 115.886C146.524 110.166 144.484 103.441 144.484 96.5621C144.484 89.6827 146.524 82.9578 150.346 77.2378C154.168 71.5178 159.6 67.0596 165.956 64.427C172.311 61.7944 179.305 61.1055 186.052 62.4476C192.799 63.7897 198.997 67.1025 203.862 71.9669C207.104 75.1896 209.678 79.0217 211.434 83.2427C213.19 87.4637 214.094 91.9903 214.094 96.5621C214.094 101.134 213.19 105.66 211.434 109.882C209.678 114.103 207.104 117.935 203.862 121.157ZM243.766 161.061C242.749 162.078 241.369 162.649 239.93 162.649C238.492 162.649 237.112 162.078 236.095 161.061L215.638 140.605C214.628 139.586 214.063 138.209 214.066 136.774C214.069 135.339 214.641 133.965 215.655 132.95C216.669 131.936 218.044 131.365 219.479 131.362C220.913 131.358 222.291 131.924 223.31 132.934L243.766 153.39C244.27 153.893 244.669 154.491 244.942 155.149C245.215 155.807 245.355 156.513 245.355 157.225C245.355 157.937 245.215 158.643 244.942 159.301C244.669 159.959 244.27 160.557 243.766 161.061Z" fill="#1A1538"/>
<path d="M257.038 190.041H166.946C168.179 187.929 168.829 185.528 168.83 183.083V144.128C166.462 143.614 164.137 142.922 161.873 142.058V183.083C161.871 184.927 161.137 186.695 159.833 188C158.529 189.304 156.761 190.037 154.916 190.039H28.6085C26.7641 190.037 24.9959 189.304 23.6918 188C22.3876 186.695 21.654 184.927 21.6518 183.083V179.605H127.089C128.012 179.605 128.897 179.238 129.549 178.586C130.201 177.933 130.568 177.049 130.568 176.126C130.568 175.204 130.201 174.319 129.549 173.667C128.897 173.014 128.012 172.648 127.089 172.648H21.6518V93.0824C21.6524 92.6214 21.8359 92.1793 22.1619 91.8533C22.4879 91.5273 22.9299 91.3439 23.391 91.3433H50.0231C50.2626 91.3436 50.4994 91.3932 50.7189 91.489C50.9383 91.5849 51.1357 91.7249 51.2986 91.9003L60.8412 102.193C61.3034 102.694 61.9026 103.047 62.5643 103.21C63.226 103.372 63.9208 103.336 64.5622 103.107C65.2036 102.877 65.7633 102.464 66.1715 101.918C66.5797 101.373 66.8184 100.719 66.8578 100.039H130.729C130.565 97.723 130.565 95.3984 130.729 93.0824H61.8813L56.3998 87.1704C55.5847 86.2938 54.598 85.5943 53.501 85.1154C52.404 84.6365 51.2201 84.3885 50.0231 84.3867H23.391C21.0856 84.3894 18.8753 85.3064 17.2451 86.9366C15.6149 88.5668 14.6979 90.777 14.6951 93.0824V183.083C14.6958 185.528 15.3459 187.929 16.5788 190.041H9.96232C9.46749 189.976 8.96456 190.018 8.48712 190.163C8.00968 190.309 7.56871 190.554 7.19368 190.883C6.81864 191.212 6.51817 191.618 6.31232 192.072C6.10648 192.527 6 193.02 6 193.519C6 194.018 6.10648 194.512 6.31232 194.966C6.51817 195.421 6.81864 195.826 7.19368 196.156C7.56871 196.485 8.00968 196.73 8.48712 196.875C8.96456 197.021 9.46749 197.062 9.96232 196.998H257.038C257.533 197.062 258.035 197.021 258.513 196.875C258.99 196.73 259.431 196.485 259.806 196.156C260.181 195.826 260.482 195.421 260.688 194.966C260.894 194.512 261 194.018 261 193.519C261 193.02 260.894 192.527 260.688 192.072C260.482 191.618 260.181 191.212 259.806 190.883C259.431 190.554 258.99 190.309 258.513 190.163C258.035 190.018 257.533 189.976 257.038 190.041Z" fill="#1A1538"/>
<path fill-rule="evenodd" clip-rule="evenodd" d="M122.892 42.3549C123.446 41.5088 124.39 40.999 125.401 40.999L132.022 40.999C133.679 40.999 135.022 42.3422 135.022 43.999L135.022 62.032L136.203 62.032C138.106 62.032 139.648 63.5744 139.648 65.477V65.477C139.648 67.3797 138.106 68.9221 136.203 68.9221L135.022 68.9221L135.022 71.999C135.022 73.1036 134.127 73.999 133.022 73.999L128.319 73.999C127.214 73.999 126.319 73.1036 126.319 71.999L126.319 68.9221L113 68.9221C111.343 68.9221 110 67.579 110 65.9221L110 62.9272C110 62.3431 110.171 61.7717 110.491 61.2832L122.892 42.3549ZM126.319 50.065L126.319 62.032L118.703 62.032L126.319 50.065Z" fill="#FF4E00"/>
<path fill-rule="evenodd" clip-rule="evenodd" d="M60.8928 42.354C61.4472 41.5078 62.3906 40.998 63.4022 40.998L70.023 40.998C71.6798 40.998 73.023 42.3412 73.023 43.998L73.023 62.031L74.2043 62.031C76.1069 62.031 77.6493 63.5734 77.6493 65.4761C77.6493 67.3787 76.1069 68.9211 74.2043 68.9211L73.023 68.9211L73.023 71.998C73.023 73.1026 72.1275 73.998 71.023 73.998L66.3197 73.998C65.2151 73.998 64.3197 73.1026 64.3197 71.998L64.3197 68.9211L51.001 68.9211C49.3441 68.9211 48.001 67.578 48.001 65.9211L48.001 62.9263C48.001 62.3422 48.1715 61.7708 48.4916 61.2822L60.8928 42.354ZM64.3197 50.064L64.3197 62.031L56.7043 62.031L64.3197 50.064Z" fill="#FF4E00"/>
<path d="M93.2654 73.9942C90.3942 73.9869 87.9134 73.3258 85.8229 72.0108C83.7324 70.6958 82.1199 68.7989 80.9852 66.32C79.8505 63.8411 79.2865 60.8676 79.293 57.3995C79.2996 53.9212 79.8624 50.9671 80.9815 48.5372C82.1109 46.1073 83.7143 44.2583 85.7917 42.9903C87.8795 41.7223 90.3589 41.0867 93.2301 41.0836C96.1013 41.0806 98.5821 41.7159 100.673 42.9898C102.763 44.2533 104.375 46.0988 105.51 48.5263C106.645 50.9537 107.209 53.9015 107.202 57.3695C107.206 60.8582 106.643 63.8432 105.514 66.3245C104.384 68.8058 102.776 70.7063 100.688 72.0257C98.6109 73.3349 96.1366 73.9911 93.2654 73.9942ZM93.2579 67.0169C94.7398 67.0153 95.9533 66.2422 96.8984 64.6975C97.8538 63.1425 98.3246 60.7031 98.3107 57.3791C98.3084 55.2077 98.0904 53.4327 97.6567 52.0542C97.223 50.6757 96.625 49.6575 95.8628 48.9997C95.1005 48.3316 94.2254 47.9981 93.2375 47.9992C91.7556 48.0008 90.5472 48.7533 89.6124 50.2568C88.6775 51.7603 88.2015 54.138 88.1844 57.39C88.1765 59.6025 88.3894 61.4238 88.8232 62.8538C89.2569 64.2735 89.8549 65.3225 90.6172 66.0009C91.3898 66.6793 92.27 67.0179 93.2579 67.0169Z" fill="#FF4E00"/>
</svg>
