<svg xmlns="http://www.w3.org/2000/svg" width="48" height="48" viewBox="0 0 48 48" fill="none">
    <path d="M24.8065 2.37009C24.2749 2.26075 23.7266 2.26075 23.1949 2.37009C22.5804 2.49648 22.0311 2.80414 21.5944 3.04872L21.4754 3.11522C20.1673 3.84194 18.5235 4.75536 16.8015 5.71238L34.7272 15.6711L39.3853 13.0509C40.2002 12.5925 40.6077 12.3633 40.7426 12.0627C40.8602 11.8007 40.8594 11.5007 40.7405 11.2392C40.604 10.9393 40.1958 10.7124 39.3793 10.2585C36.0165 8.38931 30.0519 5.07402 26.5261 3.11522L26.4071 3.04872C25.9704 2.80414 25.4211 2.49648 24.8065 2.37009Z" fill="currentColor"/>
    <path d="M30.6345 17.9732L12.6841 8.00077C11.1646 8.84531 9.74765 9.63293 8.62213 10.2586C7.80563 10.7124 7.39739 10.9393 7.26096 11.2392C7.14203 11.5007 7.14127 11.8007 7.25888 12.0627C7.39378 12.3633 7.80122 12.5925 8.61611 13.0509L23.2162 21.2635C23.5024 21.4245 23.6454 21.505 23.7971 21.5365C23.9314 21.5644 24.0699 21.5644 24.2042 21.5365C24.3559 21.505 24.499 21.4245 24.7851 21.2635L30.6345 17.9732Z" fill="currentColor"/>
    <path d="M43.9925 17.7803C43.9918 16.8836 43.9914 16.4353 43.8023 16.1735C43.6374 15.9451 43.3837 15.7969 43.1038 15.7653C42.7829 15.7291 42.3913 15.9494 41.6083 16.3899L26.8163 24.7104C26.5194 24.8774 26.3709 24.9609 26.2629 25.079C26.1673 25.1836 26.0949 25.3072 26.0507 25.4418C26.0007 25.5939 26.0007 25.7642 26.0007 26.1049V42.4554C26.0007 43.3498 26.0007 43.797 26.1888 44.0586C26.3529 44.2868 26.6054 44.4354 26.8846 44.4681C27.2046 44.5055 27.5943 44.2891 28.3737 43.8563C31.7064 42.0057 37.7637 38.642 41.3261 36.6629L41.4524 36.5932C41.9146 36.3385 42.4959 36.0184 42.9422 35.534C43.3281 35.1153 43.6202 34.619 43.7988 34.0782C44.0054 33.4528 44.003 32.7893 44.0011 32.2615L44.0007 32.1173C44.0007 28.1911 43.9957 21.5126 43.9925 17.7803Z" fill="currentColor"/>
    <path d="M21.1169 44.4681C20.7969 44.5055 20.4072 44.2891 19.6277 43.8562C16.295 42.0056 10.2378 38.642 6.6754 36.6629L6.54905 36.5931C6.0868 36.3385 5.5056 36.0184 5.05927 35.534C4.67337 35.1153 4.38133 34.619 4.20268 34.0782C3.99604 33.4528 3.99846 32.7893 4.00038 32.2615L4.00074 32.1173C4.00074 28.1911 4.00582 21.5127 4.00894 17.7803C4.00969 16.8837 4.01006 16.4353 4.19915 16.1735C4.3641 15.9452 4.61777 15.797 4.89771 15.7654C5.2186 15.7292 5.61014 15.9494 6.3932 16.3899L21.1852 24.7104C21.482 24.8774 21.6305 24.961 21.7386 25.0791C21.8342 25.1836 21.9065 25.3073 21.9507 25.4418C22.0007 25.594 22.0007 25.7643 22.0007 26.105V42.4554C22.0007 43.3498 22.0007 43.797 21.8127 44.0585C21.6486 44.2868 21.3961 44.4354 21.1169 44.4681Z" fill="currentColor"/>
</svg>
