<svg width="57" height="56" viewBox="0 0 57 56" fill="none" xmlns="http://www.w3.org/2000/svg">
<g id="package-check">
<g id="Solid">
<path fill-rule="evenodd" clip-rule="evenodd" d="M55.8178 35.6839C56.729 36.5951 56.729 38.0725 55.8178 38.9837L46.4844 48.3171C45.5732 49.2283 44.0958 49.2283 43.1846 48.3171L38.5179 43.6504C37.6067 42.7392 37.6067 41.2618 38.5179 40.3506C39.4292 39.4394 40.9065 39.4394 41.8178 40.3506L44.8345 43.3673L52.5179 35.6839C53.4291 34.7727 54.9065 34.7727 55.8178 35.6839Z" fill="currentColor"/>
<path d="M27.5611 2.7656C28.1813 2.63803 28.8211 2.63803 29.4413 2.7656C30.1583 2.91305 30.7991 3.27198 31.3086 3.55733L31.4474 3.63491C35.5609 5.92018 42.5196 9.78802 46.4428 11.9688C47.3954 12.4983 47.8717 12.763 48.0309 13.1129C48.1696 13.4179 48.1705 13.7679 48.0333 14.0737C47.8759 14.4244 47.4006 14.6917 46.4499 15.2265L41.0154 18.2834L20.1021 6.66494L25.555 3.63491L25.6938 3.55733C26.2033 3.27198 26.8441 2.91305 27.5611 2.7656Z" fill="currentColor"/>
<path d="M15.2984 9.33472L36.2406 20.9693L29.4163 24.808C29.0824 24.9957 28.9155 25.0896 28.7385 25.1264C28.5819 25.159 28.4203 25.159 28.2637 25.1264C28.0867 25.0896 27.9198 24.9957 27.5859 24.808L10.5525 15.2265C9.60175 14.6918 9.12641 14.4244 8.96902 14.0737C8.83181 13.768 8.8327 13.418 8.97145 13.1129C9.13061 12.763 9.6069 12.4983 10.5595 11.9688L15.2984 9.33472Z" fill="currentColor"/>
<path d="M51.825 20.7441C51.8241 19.698 51.8236 19.175 51.603 18.8696C51.4106 18.6031 51.1146 18.4302 50.788 18.3934C50.4137 18.3512 49.9569 18.6081 49.0433 19.122L31.786 28.8293C31.4396 29.0241 31.2664 29.1215 31.1403 29.2594C31.0288 29.3813 30.9444 29.5256 30.8928 29.6826C30.8345 29.86 30.8345 30.0587 30.8345 30.4562V49.5318C30.8345 50.5752 30.8345 51.097 31.0539 51.4021C31.2453 51.6684 31.54 51.8418 31.8657 51.8799C32.239 51.9236 32.6936 51.6711 33.603 51.1661C34.0862 50.8978 34.6184 50.6023 35.1881 50.286C35.9227 49.878 36.2901 49.674 36.452 49.384C36.5938 49.1299 36.6356 48.8319 36.569 48.5487C36.4931 48.2253 36.196 47.9282 35.6019 47.334L35.2181 46.9502C32.4844 44.2166 32.4844 39.7844 35.2181 37.0507C37.8568 34.4121 42.0779 34.3204 44.8266 36.7756L49.2181 32.3841C49.6522 31.95 50.1292 31.5848 50.6353 31.2885C51.1537 30.9852 51.4129 30.8335 51.5354 30.6963C51.6636 30.5526 51.7162 30.4608 51.7754 30.2775C51.8318 30.1025 51.8316 29.8723 51.8313 29.412C51.8294 26.2165 51.8268 23.0135 51.825 20.7441Z" fill="currentColor"/>
<path d="M23.3994 51.1661C24.3087 51.6711 24.7634 51.9235 25.1367 51.8799C25.4624 51.8418 25.757 51.6684 25.9485 51.4021C26.1678 51.097 26.1678 50.5752 26.1678 49.5318V30.4563C26.1678 30.0588 26.1678 29.8601 26.1095 29.6826C26.0579 29.5256 25.9736 29.3814 25.862 29.2595C25.736 29.1216 25.5627 29.0242 25.2163 28.8293L7.95906 19.1221C7.04549 18.6082 6.5887 18.3512 6.21433 18.3934C5.88772 18.4303 5.59178 18.6032 5.39933 18.8696C5.17873 19.175 5.17829 19.6981 5.17742 20.7442C5.17378 25.0986 5.16785 32.8901 5.16785 37.4706L5.16744 37.639C5.1652 38.2547 5.16237 39.0288 5.40345 39.7584C5.61187 40.3893 5.95259 40.9683 6.40281 41.4569C6.92353 42.0219 7.60159 42.3954 8.14088 42.6925L8.28829 42.7739C12.4444 45.0828 19.5112 49.0071 23.3994 51.1661Z" fill="currentColor"/>
</g>
</g>
</svg>
