<svg viewBox="0 0 38 30" fill="none" xmlns="http://www.w3.org/2000/svg">
<g id="Frame 15">
<path id="&#226;&#128;&#156;" d="M8.47 27.65C6.25 27.65 4.45 26.9 3.07 25.4C1.69 23.9 1 21.875 1 19.325C1 17.315 1.48 15.305 2.44 13.295C3.4 11.285 4.84 9.32 6.76 7.4C8.68 5.48 11.05 3.68 13.87 2L17.38 6.635C15.13 7.685 13.135 8.975 11.395 10.505C9.685 12.035 8.515 13.535 7.885 15.005C9.235 14.915 10.465 15.125 11.575 15.635C12.715 16.115 13.615 16.82 14.275 17.75C14.935 18.68 15.265 19.79 15.265 21.08C15.265 23.03 14.62 24.62 13.33 25.85C12.07 27.05 10.45 27.65 8.47 27.65ZM27.505 27.65C25.285 27.65 23.485 26.9 22.105 25.4C20.725 23.9 20.035 21.875 20.035 19.325C20.035 17.315 20.515 15.305 21.475 13.295C22.435 11.285 23.875 9.32 25.795 7.4C27.715 5.48 30.085 3.68 32.905 2L36.415 6.635C34.165 7.685 32.17 8.975 30.43 10.505C28.72 12.035 27.55 13.535 26.92 15.005C28.27 14.915 29.5 15.125 30.61 15.635C31.75 16.115 32.65 16.82 33.31 17.75C33.97 18.68 34.3 19.79 34.3 21.08C34.3 23.03 33.655 24.62 32.365 25.85C31.105 27.05 29.485 27.65 27.505 27.65Z" fill="#1A1538"/>
</g>
</svg>
