<svg viewBox="0 0 55 55" fill="none" xmlns="http://www.w3.org/2000/svg">
<g id="rocket-01">
<path id="Icon" d="M29.7504 25.3493L8.37541 46.7243M32.0419 8.56083C34.7824 10.3793 37.4165 12.5232 39.878 14.9846C42.3607 17.4673 44.5203 20.1257 46.3488 22.8917M21.3241 18.3656L14.8556 16.2094C14.1107 15.9611 13.2902 16.1191 12.6907 16.6264L6.26213 22.066C4.94605 23.1796 5.31995 25.2988 6.93766 25.8948L13.0289 28.139M26.7828 41.8925L29.0269 47.9837C29.6229 49.6014 31.7422 49.9753 32.8558 48.6592L38.2954 42.2306C38.8026 41.6311 38.9606 40.8106 38.7123 40.0657L36.5561 33.5972M44.0347 5.70841L32.9952 7.54834C31.8031 7.74702 30.7097 8.33293 29.8841 9.21546L15.0047 25.121C11.1479 29.2439 11.2552 35.6824 15.2472 39.6745C19.2393 43.6666 25.6778 43.7738 29.8007 39.917L45.7062 25.0376C46.5888 24.212 47.1747 23.1186 47.3734 21.9265L49.2133 10.887C49.7209 7.84129 47.0804 5.2008 44.0347 5.70841Z" stroke="#1A1538" stroke-width="3" stroke-linecap="round" stroke-linejoin="round"/>
</g>
</svg>
