<svg width="48" height="48" viewBox="0 0 48 48" fill="none" xmlns="http://www.w3.org/2000/svg">
<g id="terminal-browser">
<g id="Solid">
<path d="M13.5175 4H34.4827C36.0926 3.99998 37.4214 3.99996 38.5038 4.08839C39.628 4.18024 40.6614 4.37737 41.6321 4.87195C43.1373 5.63894 44.3612 6.86279 45.1282 8.36808C45.6228 9.33875 45.8199 10.3722 45.9117 11.4964C45.9472 11.9302 45.9695 12.365 45.9833 12.8002C46.0178 13.8844 46.035 14.4265 45.8222 14.8681C45.6389 15.2486 45.3198 15.578 44.9454 15.7733C44.5107 16 43.9405 16 42.8001 16H5.20013C4.05975 16 3.48957 16 3.05489 15.7733C2.68041 15.578 2.36139 15.2486 2.17805 14.8681C1.96525 14.4265 1.98248 13.8844 2.01692 12.8002C2.03075 12.365 2.05307 11.9302 2.08852 11.4964C2.18037 10.3722 2.3775 9.33875 2.87208 8.36808C3.63906 6.86278 4.86291 5.63894 6.36821 4.87195C7.33888 4.37737 8.37228 4.18024 9.49648 4.08839C10.5789 3.99996 11.9076 3.99998 13.5175 4Z" fill="#FF4E00"/>
<path fill-rule="evenodd" clip-rule="evenodd" d="M46.0001 23.2V32.4826C46.0002 34.0926 46.0002 35.4213 45.9117 36.5037C45.8199 37.6278 45.6228 38.6613 45.1282 39.6319C44.3612 41.1372 43.1373 42.3611 41.632 43.1281C40.6614 43.6226 39.628 43.8198 38.5038 43.9116C37.4214 44 36.0926 44 34.4826 44L13.5177 44C11.9077 44 10.5789 44 9.49648 43.9116C8.37228 43.8198 7.33888 43.6226 6.3682 43.128C4.86291 42.3611 3.63906 41.1372 2.87208 39.6319C2.3775 38.6612 2.18037 37.6278 2.08852 36.5036C2.00008 35.4213 2.0001 34.0925 2.00013 32.4826V23.2C2.00013 22.0799 2.00013 21.5198 2.21811 21.092C2.40986 20.7157 2.71582 20.4097 3.09215 20.218C3.51997 20 4.08002 20 5.20013 20H42.8001C43.9202 20 44.4803 20 44.9081 20.218C45.2844 20.4097 45.5904 20.7157 45.7821 21.092C46.0001 21.5198 46.0001 22.0799 46.0001 23.2ZM13.4143 24.5858C12.6333 23.8047 11.367 23.8047 10.5859 24.5858C9.80486 25.3668 9.80486 26.6332 10.5859 27.4142L14.1717 31L10.5859 34.5858C9.80486 35.3668 9.80486 36.6332 10.5859 37.4142C11.367 38.1953 12.6333 38.1953 13.4143 37.4142L18.4143 32.4142C19.1954 31.6332 19.1954 30.3668 18.4143 29.5858L13.4143 24.5858ZM22.0001 34C20.8956 34 20.0001 34.8954 20.0001 36C20.0001 37.1046 20.8956 38 22.0001 38H30.0001C31.1047 38 32.0001 37.1046 32.0001 36C32.0001 34.8954 31.1047 34 30.0001 34H22.0001Z" fill="#FF4E00"/>
</g>
</g>
</svg>
