<svg width="48" height="48" viewBox="0 0 48 48" fill="none" xmlns="http://www.w3.org/2000/svg">
<g id="wallet-02">
<path id="Solid" fill-rule="evenodd" clip-rule="evenodd" d="M4.00046 29.9995L4.00049 30.0108V35.6772C4.00046 36.7314 4.00043 37.6409 4.06163 38.3901C4.12623 39.1807 4.26887 39.9672 4.65445 40.7239C5.22969 41.8529 6.14758 42.7708 7.27655 43.346C8.03331 43.7316 8.81975 43.8743 9.61044 43.9389C10.3596 44.0001 11.2691 44 12.3234 44L35.6776 44C36.7319 44 37.6414 44.0001 38.3905 43.9389C39.1812 43.8743 39.9677 43.7316 40.7244 43.346C41.8534 42.7708 42.7713 41.8529 43.3465 40.7239C43.7321 39.9672 43.8748 39.1808 43.9394 38.3901C44.0006 37.6409 44.0005 36.7314 44.0005 35.6771V22.3229C44.0005 21.2686 44.0006 20.3591 43.9394 19.61C43.8748 18.8193 43.7321 18.0328 43.3465 17.2761C42.7713 16.1471 41.8534 15.2292 40.7244 14.654C39.9677 14.2684 39.1812 14.1257 38.3905 14.0611C37.6414 13.9999 36.7319 14 35.6776 14H34.0005L34.0005 8.91968C34.0005 8.15796 34.0006 7.45564 33.9484 6.88371C33.8943 6.29102 33.7656 5.54331 33.2996 4.86363C32.6873 3.97046 31.739 3.36372 30.6715 3.18205C29.8591 3.04381 29.1263 3.24031 28.5655 3.43956C28.0243 3.63181 27.3866 3.92619 26.695 4.24545L8.64645 12.5753C7.53284 13.0875 6.55389 13.5377 5.80678 14.2678C5.15263 14.9071 4.65331 15.6875 4.34697 16.5494C3.9971 17.5337 3.99856 18.6112 4.00023 19.837L4.00046 29.9995ZM29.9045 7.20875C29.557 7.33224 29.088 7.54652 28.2976 7.91131L15.1054 14L30.0005 14V9.00086C30.0005 8.13036 29.9985 7.61474 29.9649 7.2474L29.9592 7.18983L29.9045 7.20875ZM33.0005 26C31.3436 26 30.0005 27.3431 30.0005 29C30.0005 30.6569 31.3436 32 33.0005 32C34.6573 32 36.0005 30.6569 36.0005 29C36.0005 27.3431 34.6573 26 33.0005 26Z" fill="currentColor"/>
</g>
</svg>
