<svg width="32" height="32" viewBox="0 0 32 32" fill="none" xmlns="http://www.w3.org/2000/svg">
<path d="M3.40916 15.0286C3.47019 14.9981 3.53125 14.969 3.59075 14.9416C4.62524 14.4623 5.67347 14.0136 6.72017 13.5649C6.77662 13.5649 6.8712 13.4993 6.9246 13.4779C7.00547 13.4428 7.08635 13.4092 7.16721 13.3741C7.32284 13.307 7.47848 13.2413 7.63259 13.1742C7.94385 13.0414 8.25357 12.9086 8.56483 12.7758C9.18583 12.5103 9.80682 12.2447 10.4278 11.9776C11.6698 11.4465 12.9134 10.9138 14.1554 10.3827C15.3974 9.85152 16.6409 9.31887 17.8829 8.78773C19.1249 8.2566 20.3684 7.72395 21.6104 7.19281C22.8524 6.66168 24.0959 6.12903 25.3379 5.59789C25.6141 5.47885 25.9132 5.3018 26.2092 5.2499C26.4579 5.20564 26.7005 5.12019 26.9507 5.07287C27.4252 4.98282 27.9486 4.94619 28.4033 5.14307C28.5604 5.21175 28.7054 5.30789 28.8259 5.42846C29.4027 5.99928 29.3218 6.93641 29.1997 7.73922C28.3498 13.3344 27.5 18.9312 26.6486 24.5264C26.5326 25.2941 26.3739 26.1366 25.7682 26.6219C25.2555 27.0325 24.5262 27.0783 23.893 26.9043C23.2598 26.7288 22.7014 26.3609 22.1536 25.9992C19.8817 24.4943 17.6083 22.9894 15.3363 21.4846C14.7962 21.1274 14.1951 20.6604 14.2012 20.0118C14.2042 19.621 14.4376 19.273 14.6757 18.9632C16.65 16.3869 19.4987 14.6165 21.618 12.1592C21.9171 11.8128 22.1521 11.187 21.7416 10.9871C21.4975 10.868 21.2167 11.0298 20.994 11.1839C18.1926 13.1299 15.3928 15.0774 12.5914 17.0234C11.6775 17.6583 10.7193 18.3115 9.61765 18.4672C8.63199 18.6076 7.64023 18.3329 6.6866 18.052C5.88708 17.817 5.08907 17.5759 4.29413 17.3271C3.87148 17.1958 3.4351 17.0539 3.10858 16.7563C2.78206 16.4586 2.59441 15.9581 2.79124 15.5612C2.91483 15.3125 3.15438 15.1553 3.40614 15.027L3.40916 15.0286Z" fill="white"/>
</svg>
