<svg width="32" height="32" viewBox="0 0 32 32" fill="none" xmlns="http://www.w3.org/2000/svg">
<path d="M31.6812 9.59941C31.6812 9.59941 31.3688 7.39316 30.4062 6.42441C29.1875 5.14941 27.825 5.14316 27.2 5.06816C22.725 4.74316 16.0063 4.74316 16.0063 4.74316H15.9937C15.9937 4.74316 9.275 4.74316 4.8 5.06816C4.175 5.14316 2.8125 5.14941 1.59375 6.42441C0.63125 7.39316 0.325 9.59941 0.325 9.59941C0.325 9.59941 0 12.1932 0 14.7807V17.2057C0 19.7932 0.31875 22.3869 0.31875 22.3869C0.31875 22.3869 0.63125 24.5932 1.5875 25.5619C2.80625 26.8369 4.40625 26.7932 5.11875 26.9307C7.68125 27.1744 16 27.2494 16 27.2494C16 27.2494 22.725 27.2369 27.2 26.9182C27.825 26.8432 29.1875 26.8369 30.4062 25.5619C31.3688 24.5932 31.6812 22.3869 31.6812 22.3869C31.6812 22.3869 32 19.7994 32 17.2057V14.7807C32 12.1932 31.6812 9.59941 31.6812 9.59941ZM12.6938 20.1494V11.1557L21.3375 15.6682L12.6938 20.1494Z" fill="white"/>
</svg>
